<?xml version="1.0" encoding="utf-8"?>
<!-- Generator: Adobe Illustrator 15.0.0, SVG Export Plug-In . SVG Version: 6.00 Build 0)  -->
<!DOCTYPE svg PUBLIC "-//W3C//DTD SVG 1.1//EN" "http://www.w3.org/Graphics/SVG/1.1/DTD/svg11.dtd">
<svg version="1.1" id="Layer_1" xmlns="http://www.w3.org/2000/svg" xmlns:xlink="http://www.w3.org/1999/xlink" x="0px" y="0px"
	 width="1024px" height="1024px" viewBox="0 0 1024 1024" enable-background="new 0 0 1024 1024" xml:space="preserve">
<path d="M1018.062,263.245705654434C1018.062,263.245705654434,871.669,105.144705654434,871.669,105.144705654434C864.829,98.30470565443397,849.103,101.33070565443404,838.212,112.21870565443396C838.212,112.21870565443396,435.329,544.908705654434,435.329,544.908705654434C431.785,545.506705654434,428.146,545.827705654434,424.431,545.827705654434C419.052,545.827705654434,413.832,545.166705654434,408.834,543.936705654434C408.834,543.936705654434,185.15,301.96570565443403,185.15,301.96570565443403C174.26,291.07470565443396,159.886,287.79170565443394,153.046,294.63270565443395C153.046,294.63270565443395,4.997,452.701705654434,4.997,452.701705654434C-5.928,465.07070565443405,5.137,483.64370565443403,16.027,494.533705654434C16.027,494.533705654434,403.716,911.604705654434,403.716,911.604705654434C414.606,922.492705654434,430.595,929.538705654434,444.619,915.514705654434C444.619,915.514705654434,585.404,763.859705654434,585.404,763.859705654434C586.576,762.688705654434,587.579,761.302705654434,588.406,759.774705654434C685.163,655.782705654434,1000.027,317.398705654434,1008.994,308.15270565443404C1019.414,297.40670565443395,1032.598,281.087705654434,1018.062,263.245705654434C1018.062,263.245705654434,1018.062,263.245705654434,1018.062,263.245705654434"></path>
</svg>